<svg width="125" height="114" viewBox="0 0 125 114" fill="none" xmlns="http://www.w3.org/2000/svg">
<path d="M90.1544 49.8683L59.0485 34.025C58.8786 33.938 58.7361 33.8058 58.6366 33.643C58.537 33.4802 58.4844 33.293 58.4844 33.1022C58.4844 32.9114 58.537 32.7242 58.6366 32.5614C58.7361 32.3986 58.8786 32.2664 59.0485 32.1794L90.1544 16.2324C90.4492 16.0797 90.7763 16 91.1083 16C91.4403 16 91.7674 16.0797 92.0622 16.2324L123.168 32.1794C123.338 32.2664 123.481 32.3986 123.58 32.5614C123.68 32.7242 123.732 32.9114 123.732 33.1022C123.732 33.293 123.68 33.4802 123.58 33.643C123.481 33.8058 123.338 33.938 123.168 34.025L92.0622 49.8683C91.7674 50.021 91.4403 50.1007 91.1083 50.1007C90.7763 50.1007 90.4492 50.021 90.1544 49.8683Z" fill="#656769" stroke="#45413C" stroke-linecap="round" stroke-linejoin="round"/>
<path d="M58.5508 33.0919V49.578" stroke="#45413C" stroke-linecap="round" stroke-linejoin="round"/>
<path d="M60.5415 49.5573C60.5614 49.273 60.5226 48.9876 60.4273 48.719C60.3321 48.4504 60.1825 48.2044 59.9879 47.9962C59.7933 47.7879 59.5579 47.6221 59.2963 47.5089C59.0348 47.3957 58.7527 47.3377 58.4677 47.3384C58.1828 47.3377 57.9007 47.3957 57.6391 47.5089C57.3776 47.6221 57.1422 47.7879 56.9476 47.9962C56.753 48.2044 56.6034 48.4504 56.5082 48.719C56.4129 48.9876 56.3741 49.273 56.394 49.5573L56 57.2093H60.9355L60.5415 49.5573Z" fill="#FFE500" stroke="#45413C" stroke-linecap="round" stroke-linejoin="round"/>
<path d="M91.0876 44.6425C80.7189 44.6425 71.0761 46.7162 68.5254 49.5779V79.0041C68.5285 79.5118 68.6817 80.0072 68.9659 80.4279C69.25 80.8486 69.6524 81.1758 70.1222 81.3682C83.5753 86.7799 98.5999 86.7799 112.053 81.3682C112.523 81.1758 112.925 80.8486 113.209 80.4279C113.493 80.0072 113.647 79.5118 113.65 79.0041V49.5779C111.099 46.8199 101.456 44.6425 91.0876 44.6425Z" fill="#A86C4D" stroke="#45413C" stroke-linecap="round" stroke-linejoin="round"/>
<path d="M106.723 84.624L91.0873 78.6724L75.4514 84.624C72.8 85.6357 70.5182 87.4282 68.9075 89.7647C67.2968 92.1011 66.4331 94.8714 66.4307 97.7092V107.248H115.744V97.7092C115.741 94.8714 114.878 92.1011 113.267 89.7647C111.656 87.4282 109.375 85.6357 106.723 84.624Z" fill="#656769"/>
<path d="M106.723 84.624L91.0873 78.6724L75.4514 84.624C72.8 85.6357 70.5182 87.4282 68.9075 89.7647C67.2968 92.1011 66.4331 94.8714 66.4307 97.7092V103.93C66.4331 101.093 67.2968 98.3223 68.9075 95.9859C70.5182 93.6494 72.8 91.8569 75.4514 90.8452L91.0873 84.8728L106.723 90.8244C109.375 91.8361 111.656 93.6287 113.267 95.9651C114.878 98.3016 115.741 101.072 115.744 103.91V97.6885C115.737 94.8542 114.872 92.0885 113.261 89.7561C111.651 87.4238 109.371 85.6344 106.723 84.624Z" fill="#525252"/>
<path d="M106.723 84.624L91.0873 78.6724L75.4514 84.624C72.8 85.6357 70.5182 87.4282 68.9075 89.7647C67.2968 92.1011 66.4331 94.8714 66.4307 97.7092V107.248H115.744V97.7092C115.741 94.8714 114.878 92.1011 113.267 89.7647C111.656 87.4282 109.375 85.6357 106.723 84.624Z" stroke="#45413C" stroke-linecap="round" stroke-linejoin="round"/>
<path d="M91.0876 86.7392C91.0876 86.7392 85.8204 84.4374 85.8204 81.4719V75.5618C85.8176 74.8684 85.9519 74.1812 86.2153 73.5397C86.4788 72.8983 86.8664 72.3152 87.3558 71.8239C87.8451 71.3326 88.4267 70.9427 89.0671 70.6767C89.7075 70.4107 90.3942 70.2738 91.0876 70.2738C91.7811 70.2738 92.4677 70.4107 93.1081 70.6767C93.7485 70.9427 94.3301 71.3326 94.8195 71.8239C95.3089 72.3152 95.6964 72.8983 95.9599 73.5397C96.2234 74.1812 96.3576 74.8684 96.3549 75.5618V81.4719C96.3549 84.4374 91.0876 86.7392 91.0876 86.7392Z" fill="#FFCEBF"/>
<path d="M91.0876 70.2738C89.6906 70.2738 88.3509 70.8287 87.3631 71.8165C86.3753 72.8044 85.8203 74.1441 85.8203 75.5411V76.7853C85.8203 78.1823 86.3753 79.522 87.3631 80.5098C88.3509 81.4976 89.6906 82.0526 91.0876 82.0526C92.4846 82.0526 93.8243 81.4976 94.8121 80.5098C95.7999 79.522 96.3549 78.1823 96.3549 76.7853V75.5618C96.3576 74.8684 96.2234 74.1812 95.9599 73.5397C95.6964 72.8983 95.3088 72.3152 94.8195 71.8239C94.3301 71.3326 93.7485 70.9427 93.1081 70.6767C92.4677 70.4107 91.781 70.2738 91.0876 70.2738Z" fill="#FFB59E"/>
<path d="M91.0876 86.7392C91.0876 86.7392 85.8204 84.4374 85.8204 81.4719V75.5618C85.8176 74.8684 85.9519 74.1812 86.2153 73.5397C86.4788 72.8983 86.8664 72.3152 87.3558 71.8239C87.8451 71.3326 88.4267 70.9427 89.0671 70.6767C89.7075 70.4107 90.3942 70.2738 91.0876 70.2738C91.7811 70.2738 92.4677 70.4107 93.1081 70.6767C93.7485 70.9427 94.3301 71.3326 94.8195 71.8239C95.3089 72.3152 95.6964 72.8983 95.9599 73.5397C96.2234 74.1812 96.3576 74.8684 96.3549 75.5618V81.4719C96.3549 84.4374 91.0876 86.7392 91.0876 86.7392Z" stroke="#45413C" stroke-linecap="round" stroke-linejoin="round"/>
<path d="M69.21 89.3106L76.6961 107.248" stroke="#45413C" stroke-linecap="round" stroke-linejoin="round"/>
<path d="M112.966 89.3106L105.479 107.248" stroke="#45413C" stroke-linecap="round" stroke-linejoin="round"/>
<path d="M83.9121 97.8751L85.4259 107.248" stroke="#45413C" stroke-linecap="round" stroke-linejoin="round"/>
<path d="M98.2628 97.8751L96.749 107.248" stroke="#45413C" stroke-linecap="round" stroke-linejoin="round"/>
<path opacity="0.15" d="M91.0874 111.396C108.267 111.396 122.193 110.003 122.193 108.285C122.193 106.567 108.267 105.175 91.0874 105.175C73.908 105.175 59.9814 106.567 59.9814 108.285C59.9814 110.003 73.908 111.396 91.0874 111.396Z" fill="#45413C"/>
<path d="M109.896 54.3061C107.283 53.5668 104.869 52.2518 102.831 50.4576C100.793 48.6633 99.182 46.4355 98.1173 43.9375L96.8316 40.8891C91.8322 47.6279 84.4545 52.2102 76.198 53.7047L72.2993 54.4098C71.3039 54.4098 70.3492 54.8053 69.6453 55.5092C68.9414 56.2131 68.5459 57.1678 68.5459 58.1633C68.5459 59.1587 68.9414 60.1134 69.6453 60.8173C70.3492 61.5213 71.3039 61.9167 72.2993 61.9167H72.5275C73.0127 66.5008 75.1772 70.7432 78.6041 73.8265C82.0309 76.9097 86.4776 78.6157 91.0873 78.6157C95.6971 78.6157 100.144 76.9097 103.571 73.8265C106.997 70.7432 109.162 66.5008 109.647 61.9167H109.896C110.892 61.9167 111.846 61.5213 112.55 60.8173C113.254 60.1134 113.649 59.1587 113.649 58.1633C113.649 57.1678 113.254 56.2131 112.55 55.5092C111.846 54.8053 110.892 54.4098 109.896 54.4098V54.3061Z" fill="#FFCEBF" stroke="#45413C" stroke-linecap="round" stroke-linejoin="round"/>
<path d="M79.8273 57.2923C79.8273 57.6081 79.9209 57.9168 80.0964 58.1794C80.2718 58.442 80.5212 58.6467 80.813 58.7675C81.1048 58.8884 81.4258 58.92 81.7356 58.8584C82.0453 58.7968 82.3298 58.6447 82.5531 58.4214C82.7765 58.1981 82.9285 57.9135 82.9901 57.6038C83.0518 57.2941 83.0201 56.973 82.8993 56.6812C82.7784 56.3895 82.5738 56.1401 82.3112 55.9646C82.0486 55.7892 81.7399 55.6955 81.4241 55.6955C81.2136 55.6927 81.0047 55.7321 80.8097 55.8114C80.6147 55.8906 80.4376 56.0082 80.2888 56.157C80.1399 56.3058 80.0224 56.483 79.9432 56.6779C79.8639 56.8729 79.8245 57.0818 79.8273 57.2923Z" fill="#45413C" stroke="#45413C" stroke-linecap="round" stroke-linejoin="round"/>
<path d="M102.348 57.2923C102.348 57.6081 102.254 57.9168 102.079 58.1794C101.903 58.442 101.654 58.6467 101.362 58.7675C101.07 58.8884 100.749 58.92 100.44 58.8584C100.13 58.7968 99.8453 58.6447 99.622 58.4214C99.3987 58.1981 99.2466 57.9135 99.185 57.6038C99.1234 57.2941 99.155 56.973 99.2758 56.6812C99.3967 56.3895 99.6014 56.1401 99.8639 55.9646C100.127 55.7892 100.435 55.6955 100.751 55.6955C100.962 55.6927 101.17 55.7321 101.365 55.8114C101.56 55.8906 101.738 56.0082 101.886 56.157C102.035 56.3058 102.153 56.483 102.232 56.6779C102.311 56.8729 102.351 57.0818 102.348 57.2923Z" fill="#45413C" stroke="#45413C" stroke-linecap="round" stroke-linejoin="round"/>
<path d="M85.1982 67.0181C85.067 67.0209 84.9379 67.052 84.8198 67.1093C84.7017 67.1665 84.5974 67.2486 84.5139 67.3499C84.4271 67.4475 84.3634 67.5635 84.3275 67.6891C84.2916 67.8148 84.2844 67.9469 84.3065 68.0757C84.5865 69.6708 85.4199 71.1162 86.6601 72.1577C87.9004 73.1992 89.468 73.7701 91.0876 73.7701C92.7071 73.7701 94.2748 73.1992 95.515 72.1577C96.7553 71.1162 97.5887 69.6708 97.8687 68.0757C97.8908 67.9469 97.8836 67.8148 97.8477 67.6891C97.8118 67.5635 97.7481 67.4475 97.6613 67.3499C97.5798 67.2464 97.4758 67.1628 97.3573 67.1053C97.2387 67.0479 97.1087 67.018 96.977 67.0181H85.1982Z" fill="#FF6242"/>
<path d="M91.0871 69.9213C89.2148 69.848 87.3729 70.4108 85.8613 71.518C86.5148 72.2457 87.3141 72.8277 88.2073 73.2261C89.1005 73.6245 90.0676 73.8304 91.0456 73.8304C92.0237 73.8304 92.9908 73.6245 93.884 73.2261C94.7772 72.8277 95.5765 72.2457 96.23 71.518C94.741 70.4286 92.9313 69.8668 91.0871 69.9213Z" fill="#FFA694"/>
<path d="M85.1982 67.0181C85.067 67.0209 84.9379 67.052 84.8198 67.1093C84.7017 67.1665 84.5974 67.2486 84.5139 67.3499C84.4271 67.4475 84.3634 67.5635 84.3275 67.6891C84.2916 67.8148 84.2844 67.9469 84.3065 68.0757C84.5865 69.6708 85.4199 71.1162 86.6601 72.1577C87.9004 73.1992 89.468 73.7701 91.0876 73.7701C92.7071 73.7701 94.2748 73.1992 95.515 72.1577C96.7553 71.1162 97.5887 69.6708 97.8687 68.0757C97.8908 67.9469 97.8836 67.8148 97.8477 67.6891C97.8118 67.5635 97.7481 67.4475 97.6613 67.3499C97.5798 67.2464 97.4758 67.1628 97.3573 67.1053C97.2387 67.0479 97.1087 67.018 96.977 67.0181H85.1982Z" stroke="#45413C" stroke-linecap="round" stroke-linejoin="round"/>
<path d="M78.769 65.3383C79.9143 65.3383 80.8428 64.7813 80.8428 64.0941C80.8428 63.4069 79.9143 62.8499 78.769 62.8499C77.6238 62.8499 76.6953 63.4069 76.6953 64.0941C76.6953 64.7813 77.6238 65.3383 78.769 65.3383Z" fill="#FFB59E"/>
<path d="M103.405 65.3383C104.55 65.3383 105.479 64.7813 105.479 64.0941C105.479 63.4069 104.55 62.8499 103.405 62.8499C102.259 62.8499 101.331 63.4069 101.331 64.0941C101.331 64.7813 102.259 65.3383 103.405 65.3383Z" fill="#FFB59E"/>
<path d="M111.514 32.5941C110.954 29.919 102.97 28.0319 91.0878 28.0319C79.2054 28.0319 71.2215 29.919 70.6616 32.5941C69.6599 38.1923 68.9676 43.8414 68.5879 49.5157C71.0764 46.8199 80.7192 44.6425 91.0878 44.6425C101.456 44.6425 111.099 46.7162 113.65 49.578C113.252 43.8816 112.539 38.2116 111.514 32.5941Z" fill="#656769"/>
<path d="M91.0876 33.6725C98.2761 33.5847 105.428 34.7135 112.24 37.0112C111.825 34.4812 111.514 32.5941 111.514 32.5941C110.954 29.919 102.97 28.0319 91.0876 28.0319C79.2051 28.0319 71.2213 29.919 70.6614 32.5941C70.6614 32.5941 70.3296 34.419 69.9355 36.949C76.7512 34.6724 83.9026 33.5646 91.0876 33.6725Z" fill="#525252"/>
<path d="M111.514 32.5941C110.954 29.919 102.97 28.0319 91.0878 28.0319C79.2054 28.0319 71.2215 29.919 70.6616 32.5941C69.6599 38.1923 68.9676 43.8414 68.5879 49.5157C71.0764 46.8199 80.7192 44.6425 91.0878 44.6425C101.456 44.6425 111.099 46.7162 113.65 49.578C113.252 43.8816 112.539 38.2116 111.514 32.5941Z" stroke="#45413C" stroke-linecap="round" stroke-linejoin="round"/>
<path d="M41.3408 41.0027L4.60084 22.2898C4.40024 22.187 4.23189 22.0309 4.11433 21.8386C3.99678 21.6463 3.93457 21.4252 3.93457 21.1998C3.93457 20.9744 3.99678 20.7534 4.11433 20.5611C4.23189 20.3688 4.40024 20.2127 4.60084 20.1099L41.3408 1.27452C41.689 1.09415 42.0754 1 42.4675 1C42.8596 1 43.246 1.09415 43.5942 1.27452L80.3342 20.1099C80.5348 20.2127 80.7032 20.3688 80.8207 20.5611C80.9383 20.7534 81.0005 20.9744 81.0005 21.1998C81.0005 21.4252 80.9383 21.6463 80.8207 21.8386C80.7032 22.0309 80.5348 22.187 80.3342 22.2898L43.5942 41.0027C43.246 41.1831 42.8596 41.2772 42.4675 41.2772C42.0754 41.2772 41.689 41.1831 41.3408 41.0027Z" fill="#656769" stroke="#45413C" stroke-linecap="round" stroke-linejoin="round"/>
<path d="M4.0127 21.1876V40.6598" stroke="#45413C" stroke-linecap="round" stroke-linejoin="round"/>
<path d="M6.36404 40.6352C6.3876 40.2994 6.3417 39.9624 6.22921 39.6451C6.11671 39.3279 5.94003 39.0372 5.7102 38.7913C5.48037 38.5454 5.20231 38.3495 4.89339 38.2158C4.58447 38.0821 4.25131 38.0136 3.91471 38.0144C3.57811 38.0136 3.24495 38.0821 2.93602 38.2158C2.6271 38.3495 2.34905 38.5454 2.11921 38.7913C1.88938 39.0372 1.7127 39.3279 1.60021 39.6451C1.48771 39.9624 1.44181 40.2994 1.46537 40.6352L1 49.6732H6.82941L6.36404 40.6352Z" fill="#FFE500" stroke="#45413C" stroke-linecap="round" stroke-linejoin="round"/>
<path d="M60.9108 82.0535L42.4429 75.0239L23.9749 82.0535C20.8433 83.2485 18.1481 85.3657 16.2457 88.1253C14.3433 90.885 13.3232 94.157 13.3203 97.5088V108.776H71.5654V97.5088C71.5626 94.157 70.5425 90.885 68.64 88.1253C66.7376 85.3657 64.0424 83.2485 60.9108 82.0535Z" fill="#656769"/>
<path d="M60.9108 82.0535L42.4429 75.0239L23.9749 82.0535C20.8433 83.2485 18.1481 85.3657 16.2457 88.1253C14.3433 90.885 13.3232 94.157 13.3203 97.5088V104.857C13.3232 101.505 14.3433 98.233 16.2457 95.4733C18.1481 92.7137 20.8433 90.5965 23.9749 89.4015L42.4429 82.3474L60.9108 89.377C64.0424 90.572 66.7376 92.6892 68.64 95.4488C70.5425 98.2085 71.5626 101.48 71.5654 104.832V97.4843C71.5576 94.1367 70.5352 90.87 68.6331 88.1152C66.731 85.3605 64.0385 83.247 60.9108 82.0535Z" fill="#525252"/>
<path d="M60.9108 82.0535L42.4429 75.0239L23.9749 82.0535C20.8433 83.2485 18.1481 85.3657 16.2457 88.1253C14.3433 90.885 13.3232 94.157 13.3203 97.5088V108.776H71.5654V97.5088C71.5626 94.157 70.5425 90.885 68.64 88.1253C66.7376 85.3657 64.0424 83.2485 60.9108 82.0535Z" stroke="#45413C" stroke-linecap="round" stroke-linejoin="round"/>
<path d="M42.444 84.5518C42.444 84.5518 36.2227 81.8331 36.2227 78.3305V71.3499C36.2195 70.5309 36.378 69.7192 36.6892 68.9616C37.0004 68.204 37.4582 67.5153 38.0362 66.935C38.6142 66.3547 39.3011 65.8942 40.0576 65.58C40.814 65.2658 41.625 65.1041 42.444 65.1041C43.2631 65.1041 44.0741 65.2658 44.8305 65.58C45.5869 65.8942 46.2738 66.3547 46.8518 66.935C47.4298 67.5153 47.8876 68.204 48.1988 68.9616C48.51 69.7192 48.6685 70.5309 48.6653 71.3499V78.3305C48.6653 81.8331 42.444 84.5518 42.444 84.5518Z" fill="#FFCEBF"/>
<path d="M42.444 65.1041C40.794 65.1041 39.2116 65.7596 38.0448 66.9263C36.8781 68.093 36.2227 69.6754 36.2227 71.3254V72.795C36.2227 74.445 36.8781 76.0274 38.0448 77.1942C39.2116 78.3609 40.794 79.0163 42.444 79.0163C44.094 79.0163 45.6764 78.3609 46.8431 77.1942C48.0098 76.0274 48.6653 74.445 48.6653 72.795V71.3499C48.6685 70.5309 48.51 69.7192 48.1987 68.9616C47.8875 68.204 47.4298 67.5153 46.8518 66.935C46.2738 66.3547 45.5868 65.8942 44.8304 65.58C44.074 65.2658 43.263 65.1041 42.444 65.1041Z" fill="#FFB59E"/>
<path d="M42.444 84.5518C42.444 84.5518 36.2227 81.8331 36.2227 78.3305V71.3499C36.2195 70.5309 36.378 69.7192 36.6892 68.9616C37.0004 68.204 37.4582 67.5153 38.0362 66.935C38.6142 66.3547 39.3011 65.8942 40.0576 65.58C40.814 65.2658 41.625 65.1041 42.444 65.1041C43.2631 65.1041 44.0741 65.2658 44.8305 65.58C45.5869 65.8942 46.2738 66.3547 46.8518 66.935C47.4298 67.5153 47.8876 68.204 48.1988 68.9616C48.51 69.7192 48.6685 70.5309 48.6653 71.3499V78.3305C48.6653 81.8331 42.444 84.5518 42.444 84.5518Z" stroke="#45413C" stroke-linecap="round" stroke-linejoin="round"/>
<path d="M16.6016 87.5891L25.4437 108.776" stroke="#45413C" stroke-linecap="round" stroke-linejoin="round"/>
<path d="M68.2825 87.5891L59.4404 108.776" stroke="#45413C" stroke-linecap="round" stroke-linejoin="round"/>
<path d="M33.9668 97.7047L35.7548 108.776" stroke="#45413C" stroke-linecap="round" stroke-linejoin="round"/>
<path d="M50.9169 97.7047L49.1289 108.776" stroke="#45413C" stroke-linecap="round" stroke-linejoin="round"/>
<path opacity="0.15" d="M42.4431 113.674C62.7341 113.674 79.1831 112.03 79.1831 110C79.1831 107.971 62.7341 106.326 42.4431 106.326C22.1522 106.326 5.70312 107.971 5.70312 110C5.70312 112.03 22.1522 113.674 42.4431 113.674Z" fill="#45413C"/>
<path d="M42.4421 15.4807C48.8212 15.4807 54.939 18.0147 59.4497 22.5254C63.9605 27.0362 66.4945 33.154 66.4945 39.5331V52.1227H18.3896V39.5331C18.3896 33.154 20.9237 27.0362 25.4344 22.5254C29.9452 18.0147 36.063 15.4807 42.4421 15.4807Z" fill="#A86C4D" stroke="#45413C" stroke-linecap="round" stroke-linejoin="round"/>
<path d="M69.067 50.2856C68.948 49.3862 68.5587 48.5441 67.9509 47.8706C67.343 47.1971 66.545 46.7239 65.6624 46.5136L64.2173 46.1217C63.1526 45.821 62.2161 45.1786 61.5523 44.2935C60.8884 43.4083 60.5339 42.3295 60.5433 41.2231V36.2264C60.5406 35.2164 60.2059 34.2352 59.5907 33.4341C58.9755 32.633 58.1139 32.0564 57.1388 31.7932C52.4681 33.6576 47.4707 34.5655 42.4428 34.4629C37.4148 34.5655 32.4174 33.6576 27.7468 31.7932C26.7671 32.0519 25.9 32.6265 25.2801 33.428C24.6601 34.2295 24.3219 35.2132 24.3177 36.2264V41.2721C24.3271 42.3785 23.9726 43.4573 23.3088 44.3424C22.6449 45.2276 21.7085 45.87 20.6437 46.1707L19.1986 46.5626C18.3161 46.7729 17.5181 47.2461 16.9102 47.9196C16.3023 48.5931 15.9131 49.4352 15.794 50.3346C15.7286 50.9547 15.7946 51.5816 15.9879 52.1744C16.1812 52.7672 16.4974 53.3125 16.9158 53.7748C17.3342 54.2371 17.8454 54.606 18.416 54.8573C18.9866 55.1086 19.6038 55.2367 20.2273 55.2333H20.4968C21.0699 60.6477 23.6265 65.6585 27.674 69.3002C31.7215 72.9419 36.9736 74.9568 42.4183 74.9568C47.863 74.9568 53.115 72.9419 57.1625 69.3002C61.2101 65.6585 63.7667 60.6477 64.3398 55.2333H64.6092C65.2394 55.241 65.864 55.1143 66.4413 54.8616C67.0187 54.6089 67.5355 54.236 67.9573 53.7678C68.3792 53.2996 68.6963 52.7469 68.8877 52.1464C69.079 51.5459 69.1402 50.9116 69.067 50.2856Z" fill="#FFCEBF" stroke="#45413C" stroke-linecap="round" stroke-linejoin="round"/>
<path d="M29.1418 49.7713C29.1418 50.1443 29.2524 50.5089 29.4596 50.8191C29.6668 51.1292 29.9614 51.371 30.306 51.5137C30.6506 51.6565 31.0298 51.6938 31.3957 51.621C31.7615 51.5483 32.0976 51.3686 32.3613 51.1049C32.6251 50.8411 32.8047 50.5051 32.8775 50.1392C32.9503 49.7734 32.9129 49.3942 32.7702 49.0495C32.6274 48.7049 32.3857 48.4104 32.0756 48.2031C31.7654 47.9959 31.4008 47.8853 31.0278 47.8853C30.7792 47.882 30.5324 47.9285 30.3021 48.0221C30.0718 48.1158 29.8626 48.2546 29.6868 48.4304C29.511 48.6061 29.3722 48.8154 29.2786 49.0457C29.185 49.276 29.1385 49.5227 29.1418 49.7713Z" fill="#45413C" stroke="#45413C" stroke-linecap="round" stroke-linejoin="round"/>
<path d="M55.7427 49.7713C55.7427 50.1443 55.6321 50.5089 55.4248 50.8191C55.2176 51.1292 54.923 51.371 54.5784 51.5137C54.2338 51.6565 53.8546 51.6938 53.4888 51.621C53.1229 51.5483 52.7869 51.3686 52.5231 51.1049C52.2593 50.8411 52.0797 50.5051 52.0069 50.1392C51.9342 49.7734 51.9715 49.3942 52.1143 49.0495C52.257 48.7049 52.4987 48.4104 52.8089 48.2031C53.119 47.9959 53.4837 47.8853 53.8567 47.8853C54.1053 47.882 54.352 47.9285 54.5823 48.0221C54.8126 48.1158 55.0218 48.2546 55.1976 48.4304C55.3734 48.6061 55.5122 48.8154 55.6058 49.0457C55.6994 49.276 55.746 49.5227 55.7427 49.7713Z" fill="#45413C" stroke="#45413C" stroke-linecap="round" stroke-linejoin="round"/>
<path d="M35.4879 61.2589C35.333 61.2623 35.1805 61.299 35.041 61.3666C34.9015 61.4343 34.7783 61.5312 34.6797 61.6508C34.5771 61.7662 34.5019 61.9031 34.4595 62.0515C34.4171 62.1999 34.4086 62.356 34.4347 62.5081C34.7655 64.3921 35.7498 66.0993 37.2147 67.3294C38.6795 68.5595 40.5312 69.2339 42.4441 69.2339C44.3569 69.2339 46.2086 68.5595 47.6734 67.3294C49.1383 66.0993 50.1226 64.3921 50.4534 62.5081C50.4795 62.356 50.471 62.1999 50.4286 62.0515C50.3862 61.9031 50.311 61.7662 50.2084 61.6508C50.1098 61.5312 49.9866 61.4343 49.8471 61.3666C49.7076 61.299 49.5551 61.2623 49.4002 61.2589H35.4879Z" fill="#FF6242"/>
<path d="M42.4438 64.6879C40.2324 64.6014 38.0569 65.2662 36.2715 66.5739C37.0433 67.4334 37.9874 68.1208 39.0424 68.5914C40.0974 69.0619 41.2396 69.3051 42.3948 69.3051C43.55 69.3051 44.6922 69.0619 45.7472 68.5914C46.8022 68.1208 47.7463 67.4334 48.5181 66.5739C46.7595 65.2872 44.622 64.6235 42.4438 64.6879Z" fill="#FFA694"/>
<path d="M35.487 61.2587C35.332 61.2621 35.1795 61.2988 35.0401 61.3664C34.9006 61.4341 34.7773 61.531 34.6787 61.6506C34.5762 61.766 34.5009 61.9029 34.4585 62.0513C34.4161 62.1997 34.4077 62.3558 34.4338 62.5079C34.7645 64.3919 35.7488 66.0991 37.2137 67.3292C38.6786 68.5594 40.5302 69.2337 42.4431 69.2337C44.3559 69.2337 46.2076 68.5594 47.6725 67.3292C49.1373 66.0991 50.1217 64.3919 50.4524 62.5079C50.4785 62.3558 50.47 62.1997 50.4276 62.0513C50.3852 61.9029 50.31 61.766 50.2075 61.6506C50.1088 61.531 49.9856 61.4341 49.8461 61.3664C49.7066 61.2988 49.5542 61.2621 49.3992 61.2587H35.487Z" stroke="#45413C" stroke-linecap="round" stroke-linejoin="round"/>
<path d="M27.8937 59.2747C29.2464 59.2747 30.343 58.6167 30.343 57.8051C30.343 56.9935 29.2464 56.3355 27.8937 56.3355C26.5409 56.3355 25.4443 56.9935 25.4443 57.8051C25.4443 58.6167 26.5409 59.2747 27.8937 59.2747Z" fill="#FFB59E"/>
<path d="M56.9913 59.2747C58.3441 59.2747 59.4407 58.6167 59.4407 57.8051C59.4407 56.9935 58.3441 56.3355 56.9913 56.3355C55.6386 56.3355 54.542 56.9935 54.542 57.8051C54.542 58.6167 55.6386 59.2747 56.9913 59.2747Z" fill="#FFB59E"/>
<path d="M19.615 20.5997C19.615 17.6115 29.1674 15.1867 42.4428 15.1867C55.7182 15.1867 65.2706 17.636 65.2706 20.5997L67.7199 41.6395C67.7199 38.5044 56.4285 35.957 42.4918 35.957C28.5551 35.957 17.2637 38.4064 17.2637 41.6395L19.615 20.5997Z" fill="#656769"/>
<path d="M42.4424 23.2205C53.7583 23.2205 62.5759 24.6901 65.9805 26.7231L65.2702 20.5997C65.2702 17.6115 55.7178 15.1867 42.4424 15.1867C29.167 15.1867 19.6146 17.636 19.6146 20.5997L18.9043 26.7965C22.3089 24.6901 31.1265 23.2205 42.4424 23.2205Z" fill="#525252"/>
<path d="M19.615 20.5997C19.615 17.6115 29.1674 15.1867 42.4428 15.1867C55.7182 15.1867 65.2706 17.636 65.2706 20.5997L67.7199 41.6395C67.7199 38.5044 56.4285 35.957 42.4918 35.957C28.5551 35.957 17.2637 38.4064 17.2637 41.6395L19.615 20.5997Z" stroke="#45413C" stroke-linecap="round" stroke-linejoin="round"/>
</svg>
