<svg width="152" height="100" viewBox="0 0 152 100" fill="none" xmlns="http://www.w3.org/2000/svg">
<path d="M86.6676 11H5.67235C3.09188 11 1 13.0199 1 15.5116V63.3575C1 65.8492 3.09188 67.8691 5.67235 67.8691H86.6676C89.248 67.8691 91.3399 65.8492 91.3399 63.3575V15.5116C91.3399 13.0199 89.248 11 86.6676 11Z" fill="#525252" stroke="#45413C" stroke-linecap="round" stroke-linejoin="round"/>
<path d="M26.9777 16.8426H8.91907C8.27395 16.8426 7.75098 17.3476 7.75098 17.9705V21.7377C7.75098 22.3606 8.27395 22.8656 8.91907 22.8656H26.9777C27.6228 22.8656 28.1458 22.3606 28.1458 21.7377V17.9705C28.1458 17.3476 27.6228 16.8426 26.9777 16.8426Z" fill="#E1E1E1"/>
<path d="M85.5047 17H47.1681C46.523 17 46 17.505 46 18.1279V21.8951C46 22.518 46.523 23.023 47.1681 23.023H85.5047C86.1499 23.023 86.6728 22.518 86.6728 21.8951V18.1279C86.6728 17.505 86.1499 17 85.5047 17Z" fill="#E1E1E1"/>
<path d="M11.5122 26.6328H8.91907C8.27395 26.6328 7.75098 27.1377 7.75098 27.7607V31.5279C7.75098 32.1508 8.27395 32.6558 8.91907 32.6558H11.5122C12.1573 32.6558 12.6803 32.1508 12.6803 31.5279V27.7607C12.6803 27.1377 12.1573 26.6328 11.5122 26.6328Z" fill="#E1E1E1"/>
<path d="M49.6151 26.6328H41.3917C40.7466 26.6328 40.2236 27.1377 40.2236 27.7607V31.5279C40.2236 32.1508 40.7466 32.6558 41.3917 32.6558H49.6151C50.2602 32.6558 50.7831 32.1508 50.7831 31.5279V27.7607C50.7831 27.1377 50.2602 26.6328 49.6151 26.6328Z" fill="#E1E1E1"/>
<path d="M83.3977 36.4231H34.6417C33.9966 36.4231 33.4736 36.9281 33.4736 37.551V41.3182C33.4736 41.9411 33.9966 42.4461 34.6417 42.4461H83.3977C84.0428 42.4461 84.5658 41.9411 84.5658 41.3182V37.551C84.5658 36.9281 84.0428 36.4231 83.3977 36.4231Z" fill="#E1E1E1"/>
<path d="M22.0493 46.2133H8.59289C7.94778 46.2133 7.4248 46.7182 7.4248 47.3412V51.1084C7.4248 51.7313 7.94778 52.2363 8.59289 52.2363H22.0493C22.6944 52.2363 23.2174 51.7313 23.2174 51.1084V47.3412C23.2174 46.7182 22.6944 46.2133 22.0493 46.2133Z" fill="#E1E1E1"/>
<path d="M61.2027 46.2133H27.8888C27.2437 46.2133 26.7207 46.7182 26.7207 47.3412V51.1084C26.7207 51.7313 27.2437 52.2363 27.8888 52.2363H61.2027C61.8478 52.2363 62.3707 51.7313 62.3707 51.1084V47.3412C62.3707 46.7182 61.8478 46.2133 61.2027 46.2133Z" fill="#E1E1E1"/>
<path d="M70.2904 46.2133H66.4357C65.7905 46.2133 65.2676 46.7182 65.2676 47.3412V51.1084C65.2676 51.7313 65.7905 52.2363 66.4357 52.2363H70.2904C70.9355 52.2363 71.4584 51.7313 71.4584 51.1084V47.3412C71.4584 46.7182 70.9355 46.2133 70.2904 46.2133Z" fill="#E1E1E1"/>
<path opacity="0.15" d="M116.043 91.4356C135.396 91.4356 151.085 89.9207 151.085 88.0519C151.085 86.1831 135.396 84.6682 116.043 84.6682C96.6891 84.6682 81 86.1831 81 88.0519C81 89.9207 96.6891 91.4356 116.043 91.4356Z" fill="#45413C"/>
<path d="M116.043 55.8388C123.404 55.8388 130.463 58.6623 135.668 63.6881C140.873 68.7139 143.797 75.5303 143.797 82.6379V86.9239H88.2891V82.6379C88.2891 75.5303 91.2131 68.7139 96.418 63.6881C101.623 58.6623 108.682 55.8388 116.043 55.8388Z" fill="#00B8F0"/>
<path d="M116.043 55.8388C108.682 55.8388 101.623 58.6623 96.418 63.6881C91.2131 68.7139 88.2891 75.5303 88.2891 82.6379V86.9239H88.5928C89.5369 80.5419 92.832 74.7023 97.8739 70.4761C102.916 66.2499 109.366 63.9204 116.043 63.9146C122.719 63.9204 129.17 66.2499 134.212 70.4761C139.254 74.7023 142.549 80.5419 143.493 86.9239H143.797V82.6379C143.797 75.5303 140.873 68.7139 135.668 63.6881C130.463 58.6623 123.404 55.8388 116.043 55.8388Z" fill="#009FD9"/>
<path d="M116.043 55.8388C123.404 55.8388 130.463 58.6623 135.668 63.6881C140.873 68.7139 143.797 75.5303 143.797 82.6379V86.9239H88.2891V82.6379C88.2891 75.5303 91.2131 68.7139 96.418 63.6881C101.623 58.6623 108.682 55.8388 116.043 55.8388Z" stroke="#45413C" stroke-linecap="round" stroke-linejoin="round"/>
<path d="M116.065 46.7028H116.041C112.764 46.7028 110.107 49.2681 110.107 52.4326V58.8842C110.107 62.0487 112.764 64.614 116.041 64.614H116.065C119.342 64.614 121.999 62.0487 121.999 58.8842V52.4326C121.999 49.2681 119.342 46.7028 116.065 46.7028Z" fill="#FFCEBF"/>
<path d="M116.041 46.7028C114.468 46.7028 112.958 47.3065 111.845 48.381C110.733 49.4556 110.107 50.913 110.107 52.4326V53.7861C110.107 55.3057 110.733 56.7631 111.845 57.8376C112.958 58.9122 114.468 59.5158 116.041 59.5158C117.615 59.5158 119.124 58.9122 120.237 57.8376C121.35 56.7631 121.975 55.3057 121.975 53.7861V52.4551C121.978 51.7008 121.827 50.9533 121.53 50.2555C121.233 49.5578 120.797 48.9234 120.245 48.389C119.694 47.8545 119.039 47.4305 118.318 47.1411C117.596 46.8518 116.823 46.7028 116.041 46.7028Z" fill="#EBCB00"/>
<path d="M116.065 46.7028H116.041C112.764 46.7028 110.107 49.2681 110.107 52.4326V58.8842C110.107 62.0487 112.764 64.614 116.041 64.614H116.065C119.342 64.614 121.999 62.0487 121.999 58.8842V52.4326C121.999 49.2681 119.342 46.7028 116.065 46.7028Z" stroke="#45413C" stroke-linecap="round" stroke-linejoin="round"/>
<path d="M99.8281 86.9241V81.4875" stroke="#45413C" stroke-linecap="round" stroke-linejoin="round"/>
<path d="M132.257 86.9241V81.4875" stroke="#45413C" stroke-linecap="round" stroke-linejoin="round"/>
<path d="M116.042 1C114.119 1.00174 112.204 1.23668 110.342 1.6993C105.996 2.64674 100.343 4.22582 95.2265 3.27837C95.0272 4.55078 95.0984 5.84905 95.4358 7.09401C95.7731 8.33897 96.3697 9.50451 97.1889 10.5195C94.5235 14.2291 93.0969 18.6371 93.1006 23.1521V34.747H138.983V23.1521C138.983 17.277 136.566 11.6425 132.264 7.4882C127.961 3.33388 122.126 1 116.042 1Z" fill="#724F3D"/>
<path d="M116.042 1C114.119 1.00174 112.204 1.23668 110.342 1.6993C105.996 2.64674 100.343 4.22582 95.2266 3.27837C94.9103 5.64463 95.4732 8.04252 96.8152 10.0458C101.391 10.1147 105.952 9.51382 110.342 8.26372C113.73 7.41985 117.274 7.33642 120.701 8.01984C124.128 8.70325 127.347 10.1354 130.112 12.2064C132.877 14.2774 135.114 16.9322 136.652 19.9675C138.19 23.0027 138.987 26.3376 138.983 29.7165V23.1521C138.983 17.277 136.566 11.6425 132.264 7.4882C127.961 3.33388 122.126 1 116.042 1Z" fill="#A86C4D"/>
<path d="M116.042 1C114.119 1.00174 112.204 1.23668 110.342 1.6993C105.996 2.64674 100.343 4.22582 95.2265 3.27837C95.0272 4.55078 95.0984 5.84905 95.4358 7.09401C95.7731 8.33897 96.3697 9.50451 97.1889 10.5195C94.5235 14.2291 93.0969 18.6371 93.1006 23.1521V34.747H138.983V23.1521C138.983 17.277 136.566 11.6425 132.264 7.4882C127.961 3.33388 122.126 1 116.042 1Z" stroke="#45413C" stroke-linecap="round" stroke-linejoin="round"/>
<path d="M141.437 33.0552C141.323 32.2269 140.952 31.4513 140.372 30.831C139.792 30.2107 139.031 29.7749 138.189 29.5813L136.811 29.2203C135.796 28.9433 134.902 28.3517 134.269 27.5365C133.636 26.7213 133.298 25.7277 133.307 24.7087V20.1068C133.304 19.1766 132.985 18.2729 132.398 17.5351C131.811 16.7973 130.99 16.2663 130.06 16.0238C125.605 17.741 120.838 18.5771 116.043 18.4826C111.247 18.5771 106.48 17.741 102.025 16.0238C101.091 16.2621 100.264 16.7913 99.6727 17.5295C99.0814 18.2677 98.7588 19.1736 98.7548 20.1068V24.7538C98.7638 25.7728 98.4257 26.7664 97.7925 27.5816C97.1593 28.3968 96.2662 28.9885 95.2506 29.2654L93.8722 29.6264C93.0304 29.82 92.2693 30.2558 91.6895 30.8761C91.1097 31.4964 90.7385 32.272 90.6249 33.1003C90.5625 33.6714 90.6255 34.2488 90.8099 34.7947C90.9942 35.3407 91.2958 35.843 91.6948 36.2687C92.0939 36.6945 92.5815 37.0342 93.1257 37.2657C93.67 37.4971 94.2587 37.6151 94.8534 37.612H95.1104C95.657 42.5986 98.0955 47.2135 101.956 50.5675C105.817 53.9214 110.826 55.7772 116.019 55.7772C121.212 55.7772 126.222 53.9214 130.082 50.5675C133.943 47.2135 136.381 42.5986 136.928 37.612H137.185C137.786 37.6191 138.382 37.5024 138.932 37.2697C139.483 37.0369 139.976 36.6935 140.378 36.2623C140.781 35.8311 141.083 35.322 141.266 34.769C141.448 34.2159 141.507 33.6317 141.437 33.0552Z" fill="#FFCEBF" stroke="#45413C" stroke-linecap="round" stroke-linejoin="round"/>
<path d="M103.358 32.5814C103.358 32.925 103.463 33.2608 103.661 33.5464C103.858 33.8321 104.139 34.0547 104.468 34.1862C104.797 34.3177 105.158 34.3521 105.507 34.285C105.856 34.218 106.177 34.0526 106.428 33.8097C106.68 33.5667 106.851 33.2572 106.921 32.9203C106.99 32.5834 106.955 32.2341 106.818 31.9167C106.682 31.5993 106.452 31.328 106.156 31.1372C105.86 30.9463 105.512 30.8444 105.156 30.8444C104.919 30.8414 104.684 30.8843 104.464 30.9705C104.245 31.0567 104.045 31.1845 103.877 31.3464C103.71 31.5083 103.577 31.701 103.488 31.9131C103.399 32.1253 103.354 32.3525 103.358 32.5814Z" fill="#45413C" stroke="#45413C" stroke-linecap="round" stroke-linejoin="round"/>
<path d="M128.728 32.5814C128.728 32.925 128.622 33.2608 128.424 33.5464C128.227 33.8321 127.946 34.0547 127.617 34.1862C127.288 34.3177 126.927 34.3521 126.578 34.285C126.229 34.218 125.908 34.0526 125.657 33.8097C125.405 33.5667 125.234 33.2572 125.164 32.9203C125.095 32.5834 125.131 32.2341 125.267 31.9167C125.403 31.5993 125.634 31.328 125.929 31.1372C126.225 30.9463 126.573 30.8444 126.929 30.8444C127.166 30.8414 127.401 30.8843 127.621 30.9705C127.84 31.0567 128.04 31.1845 128.208 31.3464C128.375 31.5083 128.508 31.701 128.597 31.9131C128.686 32.1253 128.731 32.3525 128.728 32.5814Z" fill="#45413C" stroke="#45413C" stroke-linecap="round" stroke-linejoin="round"/>
<path d="M109.411 43.1611C109.263 43.1642 109.118 43.198 108.985 43.2603C108.852 43.3226 108.734 43.4118 108.64 43.522C108.543 43.6283 108.471 43.7544 108.43 43.8911C108.39 44.0277 108.382 44.1714 108.407 44.3115C108.722 46.0467 109.661 47.619 111.058 48.752C112.455 49.8849 114.222 50.506 116.046 50.506C117.87 50.506 119.637 49.8849 121.034 48.752C122.431 47.619 123.37 46.0467 123.685 44.3115C123.71 44.1714 123.702 44.0277 123.662 43.8911C123.621 43.7544 123.549 43.6283 123.452 43.522C123.36 43.4095 123.243 43.3185 123.109 43.256C122.976 43.1935 122.829 43.161 122.681 43.1611H109.411Z" fill="#FF6242"/>
<path d="M116.046 46.3192C113.937 46.2395 111.862 46.8517 110.159 48.0561C110.895 48.8477 111.796 49.4808 112.802 49.9142C113.808 50.3476 114.898 50.5716 116 50.5716C117.101 50.5716 118.191 50.3476 119.197 49.9142C120.203 49.4808 121.104 48.8477 121.84 48.0561C120.163 46.8711 118.124 46.2599 116.046 46.3192Z" fill="#FFA694"/>
<path d="M109.408 43.1612C109.261 43.1643 109.115 43.1981 108.982 43.2604C108.849 43.3227 108.731 43.412 108.637 43.5221C108.54 43.6284 108.468 43.7545 108.427 43.8912C108.387 44.0279 108.379 44.1716 108.404 44.3117C108.719 46.0469 109.658 47.6191 111.055 48.7521C112.452 49.885 114.219 50.5061 116.043 50.5061C117.868 50.5061 119.634 49.885 121.031 48.7521C122.428 47.6191 123.367 46.0469 123.682 44.3117C123.707 44.1716 123.699 44.0279 123.659 43.8912C123.618 43.7545 123.547 43.6284 123.449 43.5221C123.357 43.4096 123.24 43.3186 123.106 43.2561C122.973 43.1936 122.826 43.1611 122.678 43.1612H109.408Z" stroke="#45413C" stroke-linecap="round" stroke-linejoin="round"/>
<path d="M102.164 41.3341C103.455 41.3341 104.5 40.7281 104.5 39.9806C104.5 39.2331 103.455 38.6271 102.164 38.6271C100.874 38.6271 99.8281 39.2331 99.8281 39.9806C99.8281 40.7281 100.874 41.3341 102.164 41.3341Z" fill="#FFB59E"/>
<path d="M129.921 41.3341C131.211 41.3341 132.257 40.7281 132.257 39.9806C132.257 39.2331 131.211 38.6271 129.921 38.6271C128.631 38.6271 127.585 39.2331 127.585 39.9806C127.585 40.7281 128.631 41.3341 129.921 41.3341Z" fill="#FFB59E"/>
<path d="M94.8727 87.1339C94.3899 87.5886 93.8212 87.9424 93.1999 88.1745C92.5786 88.4066 91.9172 88.5125 91.2545 88.4858C90.5918 88.4591 89.941 88.3004 89.3404 88.019C88.7398 87.7377 88.2014 87.3393 87.7567 86.8472L71.867 68.8265C71.6559 68.5853 71.5458 68.2719 71.5598 67.9516C71.5737 67.6313 71.7105 67.3287 71.9418 67.1067L75.8301 63.3679C76.0625 63.1433 76.373 63.0178 76.6962 63.0178C77.0194 63.0178 77.33 63.1433 77.5624 63.3679L94.8727 80.0178C95.3456 80.4819 95.7213 81.0355 95.9777 81.6464C96.2342 82.2574 96.3662 82.9133 96.3662 83.5758C96.3662 84.2384 96.2342 84.8943 95.9777 85.5052C95.7213 86.1161 95.3456 86.6698 94.8727 87.1339Z" fill="#00B8F0"/>
<path d="M77.749 75.4939L83.731 82.2859L89.9248 75.2571L83.9553 69.5244L77.749 75.4939Z" fill="#009FD9"/>
<path d="M81.6875 71.7053L83.9556 69.5244L77.5624 63.3679C77.33 63.1433 77.0194 63.0178 76.6962 63.0178C76.373 63.0178 76.0625 63.1433 75.8301 63.3679L71.9418 67.1067C71.7105 67.3287 71.5737 67.6313 71.5598 67.9516C71.5458 68.2719 71.6559 68.5853 71.867 68.8265L73.1133 70.2971C74.0643 69.3868 75.3299 68.8787 76.6464 68.8787C77.9628 68.8787 79.2285 69.3868 80.1795 70.2971L81.6875 71.7053Z" fill="#4ACFFF"/>
<path d="M94.8727 87.1339C94.3899 87.5886 93.8212 87.9424 93.1999 88.1745C92.5786 88.4066 91.9172 88.5125 91.2545 88.4858C90.5918 88.4591 89.941 88.3004 89.3404 88.019C88.7398 87.7377 88.2014 87.3393 87.7567 86.8472L71.867 68.8265C71.6559 68.5853 71.5458 68.2719 71.5598 67.9516C71.5737 67.6313 71.7105 67.3287 71.9418 67.1067L75.8301 63.3679C76.0625 63.1433 76.373 63.0178 76.6962 63.0178C77.0194 63.0178 77.33 63.1433 77.5624 63.3679L94.8727 80.0178C95.3456 80.4819 95.7213 81.0355 95.9777 81.6464C96.2342 82.2574 96.3662 82.9133 96.3662 83.5758C96.3662 84.2384 96.2342 84.8943 95.9777 85.5052C95.7213 86.1161 95.3456 86.6698 94.8727 87.1339Z" stroke="#45413C" stroke-linecap="round" stroke-linejoin="round"/>
<path d="M75.818 63.4178L72.0792 67.0568L69.3873 64.2403C68.9112 63.7454 68.5309 63.1665 68.2657 62.5329L66.2717 57.7598C66.106 57.3377 66.0685 56.8761 66.1638 56.4328C66.2591 55.9894 66.4831 55.584 66.8076 55.2673C66.8879 55.1829 66.9846 55.1156 67.0917 55.0697C67.1988 55.0237 67.3142 55 67.4307 55C67.5473 55 67.6626 55.0237 67.7698 55.0697C67.8769 55.1156 67.9735 55.1829 68.0539 55.2673L75.818 63.4178Z" fill="#FFCEBF"/>
<path d="M67.9416 58.2583C67.8612 58.1739 67.7646 58.1066 67.6575 58.0607C67.5503 58.0147 67.435 57.991 67.3184 57.991C67.2019 57.991 67.0865 58.0147 66.9794 58.0607C66.8723 58.1066 66.7756 58.1739 66.6953 58.2583C66.6139 58.3441 66.5389 58.4357 66.471 58.5325L66.1594 57.7848C65.9937 57.3627 65.9562 56.9011 66.0515 56.4577C66.1468 56.0144 66.3708 55.609 66.6953 55.2923C66.7756 55.2078 66.8723 55.1406 66.9794 55.0946C67.0865 55.0487 67.2019 55.025 67.3184 55.025C67.435 55.025 67.5503 55.0487 67.6575 55.0946C67.7646 55.1406 67.8612 55.2078 67.9416 55.2923L75.8178 63.4178L74.3099 64.8635L67.9416 58.2583Z" fill="#FFDCD1"/>
<path d="M75.818 63.4178L72.0792 67.0568L69.3873 64.2403C68.9112 63.7454 68.5309 63.1665 68.2657 62.5329L66.2717 57.7598C66.106 57.3377 66.0685 56.8761 66.1638 56.4328C66.2591 55.9894 66.4831 55.584 66.8076 55.2673C66.8879 55.1829 66.9846 55.1156 67.0917 55.0697C67.1988 55.0237 67.3142 55 67.4307 55C67.5473 55 67.6626 55.0237 67.7698 55.0697C67.8769 55.1156 67.9735 55.1829 68.0539 55.2673L75.818 63.4178Z" stroke="#45413C" stroke-linecap="round" stroke-linejoin="round"/>
<path d="M140.812 98.999H96.2946C95.8201 99.0145 95.3561 98.846 94.9863 98.5238C94.6166 98.2016 94.3654 97.747 94.2782 97.242L91.1096 69.1871C91.094 68.8938 91.1364 68.6001 91.2339 68.3259C91.3314 68.0516 91.4818 67.803 91.6751 67.5965C91.8684 67.39 92.1 67.2305 92.3547 67.1285C92.6094 67.0266 92.8813 66.9845 93.1522 67.0051H143.955C144.225 66.9845 144.497 67.0266 144.752 67.1285C145.007 67.2305 145.238 67.39 145.432 67.5965C145.625 67.803 145.775 68.0516 145.873 68.3259C145.97 68.6001 146.013 68.8938 145.997 69.1871L142.829 97.242C142.741 97.747 142.49 98.2016 142.12 98.5238C141.751 98.846 141.287 99.0145 140.812 98.999Z" fill="#ADC4D9"/>
<path d="M93.0457 76.1584H143.953C144.386 76.1602 144.807 76.3089 145.157 76.5834L145.995 69.1871C146.011 68.8938 145.969 68.6001 145.871 68.3259C145.774 68.0516 145.623 67.803 145.43 67.5965C145.237 67.39 145.005 67.2305 144.75 67.1285C144.496 67.0266 144.224 66.9845 143.953 67.0051H93.0457C92.7748 66.9845 92.503 67.0266 92.2483 67.1285C91.9936 67.2305 91.7619 67.39 91.5687 67.5965C91.3754 67.803 91.225 68.0516 91.1275 68.3259C91.03 68.6001 90.9876 68.8938 91.0031 69.1871L91.8411 76.5834C92.1917 76.3089 92.613 76.1602 93.0457 76.1584Z" fill="#C0DCEB"/>
<path d="M140.812 98.999H96.2946C95.8201 99.0145 95.3561 98.846 94.9863 98.5238C94.6166 98.2016 94.3654 97.747 94.2782 97.242L91.1096 69.1871C91.094 68.8938 91.1364 68.6001 91.2339 68.3259C91.3314 68.0516 91.4818 67.803 91.6751 67.5965C91.8684 67.39 92.1 67.2305 92.3547 67.1285C92.6094 67.0266 92.8813 66.9845 93.1522 67.0051H143.955C144.225 66.9845 144.497 67.0266 144.752 67.1285C145.007 67.2305 145.238 67.39 145.432 67.5965C145.625 67.803 145.775 68.0516 145.873 68.3259C145.97 68.6001 146.013 68.8938 145.997 69.1871L142.829 97.242C142.741 97.747 142.49 98.2016 142.12 98.5238C141.751 98.846 141.287 99.0145 140.812 98.999Z" stroke="#45413C" stroke-linecap="round" stroke-linejoin="round"/>
<path d="M121.616 83.0163C121.585 82.1617 121.805 81.3185 122.244 80.6075C122.004 80.2655 121.661 80.025 121.275 79.9274C120.824 79.7571 120.332 79.7568 119.881 79.9265C119.429 80.0963 119.044 80.4261 118.787 80.8625C118.518 80.4029 118.11 80.0585 117.633 79.888C117.155 79.7175 116.638 79.7314 116.169 79.9274C114.859 80.2108 114.205 82.2511 114.676 84.4332C115.147 86.6152 116.614 88.1738 117.949 87.8904C118.221 87.8114 118.472 87.666 118.683 87.4654C118.881 87.6703 119.124 87.8167 119.39 87.8904C120.463 88.1171 121.616 87.1536 122.27 85.6234C121.762 84.8717 121.529 83.943 121.616 83.0163Z" fill="white"/>
<path d="M120.548 78.6177C121.141 77.8893 121.41 77.0976 121.149 76.8495C120.889 76.6013 120.197 76.9907 119.605 77.7191C119.012 78.4475 118.743 79.2392 119.004 79.4874C119.265 79.7355 119.956 79.3462 120.548 78.6177Z" fill="white"/>
</svg>
